{"title":"Gangsters Guns And Zombies 2012 DVDRip XViD UNiQUE","uid":7401554,"size":1459483938,"categoryP":"video","categoryS":"movies","magnet":"?xt=urn:btih:80d9aa90ad5ec05e191cb343d3394524d580b099&amp;dn=Gangsters+Guns+And+Zombies+2012+DVDRip+XViD+UNiQUE&amp;tr=udp%3A%2F%2Ftracker.openbittorrent.com%3A80&amp;tr=udp%3A%2F%2Fopen.demonii.com%3A1337&amp;tr=udp%3A%2F%2Ftracker.coppersurfer.tk%3A6969&amp;tr=udp%3A%2F%2Fexodus.desync.com%3A6969","seeders":0,"leechers":0,"uploader":"HeroMaster","files":-1,"time":1341088346,"description":"Gangsters,Guns And Zombies 2012 DVDRip XViD UNiQUE\n\n\n[[.........why be the same as everyone else when YOU can be UNiQUE.........]]             \n\n\nFormat                                   : AVI\nFormat/Info                              : Audio Video Interleave\nFile size                                : 1.35 GiB\nDuration                                 : 1h 28mn\nOverall bit rate                         : 2 179 Kbps\nWriting library                          : VirtualDub build 32842/release\n\nVideo\nID                                       : 0\nFormat                                   : MPEG-4 Visual\nFormat profile                           : Advanced Simple@L5\nFormat settings, BVOP                    : 2\nFormat settings, QPel                    : No\nFormat settings, GMC                     : No warppoints\nFormat settings, Matrix                  : Default (H.263)\nMuxing mode                              : Packed bitstream\nCodec ID                                 : XVID\nCodec ID/Hint                            : XviD\nDuration                                 : 1h 28mn\nBit rate                                 : 1 721 Kbps\nWidth                                    : 720 pixels\nHeight                                   : 304 pixels\nDisplay aspect ratio                     : 2.35:1\nFrame rate                               : 25.000 fps\nColor space                              : YUV\nChroma subsampling                       : 4:2:0\nBit depth                                : 8 bits\nScan type                                : Progressive\nCompression mode                         : Lossy\nBits/(Pixel*Frame)                       : 0.315\nStream size                              : 1.06 GiB (79%)\nWriting library                          : XviD 64\n\nAudio\nID                                       : 1\nFormat                                   : AC-3\nFormat/Info                              : Audio Coding 3\nMode extension                           : CM (complete main)\nFormat settings, Endianness              : Big\nCodec ID                                 : 2000\nDuration                                 : 1h 28mn\nBit rate mode                            : Constant\nBit rate                                 : 448 Kbps\nChannel(s)                               : 6 channels\nChannel positions                        : Front: L C R, Side: L R, LFE\nSampling rate                            : 48.0 KHz\nBit depth                                : 16 bits\nCompression mode                         : Lossy\nStream size                              : 283 MiB (21%)\nAlignment                                : Aligned on interleaves\nInterleave, duration                     : 40 ms (1.00 video frame)\nInterleave, preload duration             : 512 ms\n\n &lt;a href=&quot;\nhttp://www.imdb.com/title/tt2151633/&quot; rel=&quot;nofollow&quot; target=&quot;_NEW&quot;&gt;\nhttp://www.imdb.com/title/tt2151633/&lt;/a&gt;\n\nThe whole &quot;zombie thing&quot; has been hyped up so much that everyone thinks it is \nthe end of the world! Of course, where one man sees the dead rising from the \ngrave, another sees opportunity. Q had a plan: drive the robbery getaway van, deliver everyone to the safe house and get paid - a nice, simple, plan. \n\n\nSource Used\n\n\nGangsters Guns and Zombies (2012) PAL DVDR DD5.1 ... Thanks\n\n\nPoster:\n\n &lt;a href=&quot;\nhttp://i.imgur.com/64KaY.jpg&quot; rel=&quot;nofollow&quot; target=&quot;_NEW&quot;&gt;\nhttp://i.imgur.com/64KaY.jpg&lt;/a&gt;\n\n\nScreenshots:\n\n &lt;a href=&quot;\nhttp://i.imgur.com/Espng.jpg&quot; rel=&quot;nofollow&quot; target=&quot;_NEW&quot;&gt;\nhttp://i.imgur.com/Espng.jpg&lt;/a&gt;\n\n\nENJOY!","torrent":{"xt":"urn:btih:80d9aa90ad5ec05e191cb343d3394524d580b099","amp;dn":"Gangsters+Guns+And+Zombies+2012+DVDRip+XViD+UNiQUE","amp;tr":["udp%3A%2F%2Ftracker.openbittorrent.com%3A80","udp%3A%2F%2Fopen.demonii.com%3A1337","udp%3A%2F%2Ftracker.coppersurfer.tk%3A6969","udp%3A%2F%2Fexodus.desync.com%3A6969"],"infoHash":"80d9aa90ad5ec05e191cb343d3394524d580b099","infoHashBuffer":{"type":"Buffer","data":[128,217,170,144,173,94,192,94,25,28,179,67,211,57,69,36,213,128,176,153]},"announce":[],"urlList":[]}}